<svg width="24" height="28" viewBox="0 0 24 28" fill="none" xmlns="http://www.w3.org/2000/svg">
<path d="M22.6667 0.666656C23.4027 0.666656 24 1.26399 24 1.99999V26C24 26.736 23.4027 27.3333 22.6667 27.3333H4C3.264 27.3333 2.66667 26.736 2.66667 26V23.3333H0V20.6667H2.66667V18H0V15.3333H2.66667V12.6667H0V9.99999H2.66667V7.33332H0V4.66666H2.66667V1.99999C2.66667 1.26399 3.264 0.666656 4 0.666656H22.6667ZM14.6667 8.66666H12V12.6667H8V15.3333H11.9987L12 19.3333H14.6667L14.6653 15.3333H18.6667V12.6667H14.6667V8.66666Z" fill="black"/>
</svg>
